# Blender 3.5.1
# www.blender.org
o four_turtle_eggs
v 0.189000 0.441000 0.252000
v -0.063000 0.441000 0.252000
v -0.063000 0.000000 0.252000
v 0.189000 0.000000 0.252000
v 0.189000 0.441000 0.000000
v -0.063000 0.441000 0.000000
v -0.063000 0.000000 0.000000
v 0.189000 0.000000 0.000000
v 0.441000 0.315000 0.063000
v 0.189000 0.315000 0.063000
v 0.189000 0.000000 0.063000
v 0.441000 0.000000 0.063000
v 0.441000 0.315000 -0.189000
v 0.189000 0.315000 -0.189000
v 0.189000 0.000000 -0.189000
v 0.441000 0.000000 -0.189000
v -0.189000 0.252000 0.063000
v -0.378000 0.252000 0.063000
v -0.378000 0.000000 0.063000
v -0.189000 0.000000 0.063000
v -0.189000 0.252000 -0.126000
v -0.378000 0.252000 -0.126000
v -0.378000 0.000000 -0.126000
v -0.189000 0.000000 -0.126000
v 0.126000 0.252000 -0.063000
v -0.126000 0.252000 -0.063000
v -0.126000 0.000000 -0.063000
v 0.126000 0.000000 -0.063000
v 0.126000 0.252000 -0.315000
v -0.126000 0.252000 -0.315000
v -0.126000 0.000000 -0.315000
v 0.126000 0.000000 -0.315000
vn -0.0000 -0.0000 1.0000
vn -0.0000 -0.0000 -1.0000
vn -0.0000 1.0000 -0.0000
vn 1.0000 -0.0000 -0.0000
vn -1.0000 -0.0000 -0.0000
vt 0.312500 0.750000
vt 0.000000 1.000000
vt 0.062500 0.750000
vt 0.062500 0.750000
vt 0.250000 1.000000
vt 0.312500 0.750000
vt 0.062500 0.312500
vt 0.000000 0.750000
vt 0.312500 0.312500
vt 0.312500 0.312500
vt 0.250000 0.750000
vt 0.062500 0.312500
vt 0.062500 0.750000
vt 0.000000 0.750000
vt 0.312500 0.750000
vt 0.312500 0.750000
vt 0.250000 0.750000
vt 0.062500 0.750000
vt 0.312500 0.312500
vt 0.000000 1.000000
vt 0.062500 0.312500
vt 0.062500 0.312500
vt 0.250000 1.000000
vt 0.312500 0.312500
vt 0.875000 0.375000
vt 0.375000 0.562500
vt 0.625000 0.375000
vt 0.625000 0.375000
vt 0.625000 0.562500
vt 0.875000 0.375000
vt 0.625000 0.062500
vt 0.375000 0.312500
vt 0.875000 0.062500
vt 0.875000 0.062500
vt 0.625000 0.312500
vt 0.625000 0.062500
vt 0.625000 0.375000
vt 0.375000 0.312500
vt 0.875000 0.375000
vt 0.875000 0.375000
vt 0.625000 0.312500
vt 0.625000 0.375000
vt 0.875000 0.062500
vt 0.375000 0.562500
vt 0.625000 0.062500
vt 0.625000 0.062500
vt 0.625000 0.562500
vt 0.875000 0.062500
vt 0.687500 0.812500
vt 0.312500 1.000000
vt 0.500000 0.812500
vt 0.500000 0.812500
vt 0.500000 1.000000
vt 0.687500 0.812500
vt 0.500000 0.562500
vt 0.312500 0.812500
vt 0.687500 0.562500
vt 0.687500 0.562500
vt 0.500000 0.812500
vt 0.500000 0.562500
vt 0.500000 0.812500
vt 0.312500 0.812500
vt 0.687500 0.812500
vt 0.687500 0.812500
vt 0.500000 0.812500
vt 0.687500 0.562500
vt 0.312500 1.000000
vt 0.500000 0.562500
vt 0.500000 0.562500
vt 0.500000 1.000000
vt 0.687500 0.562500
vt 0.500000 0.312500
vt 0.000000 0.312500
vt 0.250000 0.312500
vt 0.250000 0.312500
vt 0.500000 0.312500
vt 0.250000 0.062500
vt 0.000000 0.062500
vt 0.500000 0.062500
vt 0.500000 0.062500
vt 0.250000 0.062500
vt 0.250000 0.312500
vt 0.000000 0.062500
vt 0.500000 0.312500
vt 0.500000 0.312500
vt 0.250000 0.062500
vt 0.250000 0.312500
vt 0.500000 0.062500
vt 0.000000 0.312500
vt 0.250000 0.062500
vt 0.250000 0.062500
vt 0.250000 0.312500
vt 0.500000 0.062500
s 0
usemtl turtle_egg.001
f 1/1/1 2/4/1 3/7/1 4/10/1
f 6/16/2 5/13/2 8/22/2 7/19/2
f 2/5/3 1/2/3 5/14/3 6/17/3
f 8/23/3 7/20/3 3/8/3 4/11/3
f 5/15/4 1/3/4 4/12/4 8/24/4
f 2/6/5 6/18/5 7/21/5 3/9/5
f 9/25/1 10/28/1 11/31/1 12/34/1
f 14/40/2 13/37/2 16/46/2 15/43/2
f 10/29/3 9/26/3 13/38/3 14/41/3
f 16/47/3 15/44/3 11/32/3 12/35/3
f 13/39/4 9/27/4 12/36/4 16/48/4
f 10/30/5 14/42/5 15/45/5 11/33/5
f 17/49/1 18/52/1 19/55/1 20/58/1
f 22/64/2 21/61/2 24/69/2 23/66/2
f 18/53/3 17/50/3 21/62/3 22/65/3
f 24/70/3 23/67/3 19/56/3 20/59/3
f 21/63/4 17/51/4 20/60/4 24/71/4
f 18/54/5 22/65/5 23/68/5 19/57/5
f 25/72/1 26/75/1 27/77/1 28/80/1
f 30/85/2 29/82/2 32/91/2 31/88/2
f 26/75/3 25/73/3 29/83/3 30/86/3
f 32/92/3 31/89/3 27/78/3 28/81/3
f 29/84/4 25/74/4 28/81/4 32/93/4
f 26/76/5 30/87/5 31/90/5 27/79/5
